<?xml version="1.0" encoding="utf-8"?>
<!-- Generator: Adobe Illustrator 26.0.2, SVG Export Plug-In . SVG Version: 6.00 Build 0)  -->
<svg version="1.1" id="Layer_1" xmlns="http://www.w3.org/2000/svg" xmlns:xlink="http://www.w3.org/1999/xlink" x="0px" y="0px"
	 viewBox="0 0 52.2 44.3" style="enable-background:new 0 0 52.2 44.3;" xml:space="preserve">
<style type="text/css">
	.st0{fill:#72BF44;}
	.st1{fill:#F35320;}
	.st2{fill:#FEA626;}
	.st3{fill:#F47C01;}
	.st4{fill:#FEA627;}
	.st5{fill:#F3531F;}
	.st6{fill:#F35321;}
</style>
<rect x="20.9" y="23.3" class="st0" width="2.8" height="2.3"/>
<rect x="24.7" y="24.9" class="st0" width="0.6" height="1.9"/>
<path class="st1" d="M46.8,8.3c0.8-0.4,1.3-1.1,1.8-1.7c0.2-0.2,0.4-0.4,0.6-0.7c-0.1,3-0.4,5.9-3,8.2c1-0.1,1.8-0.5,2.6-0.8
	c0.5-0.2,1-0.6,1.6-0.7c0,0.1,0,0.2,0,0.4c-0.3,0.2-0.2,0.5-0.3,0.8c-0.8,2.5-2.1,4.7-4.6,6.5c1.1,0,1.9-0.4,2.9-0.8
	c-0.9,2.2-2.4,3.8-5,4.6c0.4,0.4,0.9,0.6,1.4,0.8c0.5,0.2,1,0.4,1.5,0.6c-1.3,0.5-2.6,0.8-3.9,1c-3.4,0.7-6.7,0.9-10.1,0
	c-1.1-0.3-2.1-0.8-3-1.3c0-0.3,0.3-0.5,0.4-0.7c3.7,2.4,9.6,2,12.4,1c-0.3-0.1-0.6-0.3-0.9-0.4c-0.7-0.3-1.3-0.7-1.6-1.3
	c-0.2-0.3-0.3-0.6,0.4-0.6c1.4-0.1,2.8-0.3,4.1-1c0.5-0.2,0.9-0.5,1.2-0.9c-1-0.1-1.9-0.1-2.7-0.7c-0.3-0.2-0.5-0.4,0-0.7
	c1.2-0.6,2.2-1.3,3.1-2.2c0.7-0.7,1.3-1.5,1.6-2.5c-2.2,0.8-4.2,1.5-6.5,1c0.1-0.3,0.3-0.3,0.5-0.4c2.3-1.1,3.8-2.8,4.7-4.9
	C46.3,10,46.5,9.1,46.8,8.3z"/>
<path class="st2" d="M46.8,8.3c-0.4,0.9-0.5,1.8-0.9,2.6c-0.9,2.1-2.3,3.8-4.7,4.9c-0.2,0.1-0.4,0.1-0.5,0.4c2.3,0.5,4.3-0.2,6.5-1
	c-0.4,1-0.9,1.8-1.6,2.5c-0.9,0.9-1.9,1.6-3.1,2.2c-0.5,0.2-0.4,0.4,0,0.7c0.8,0.5,1.7,0.5,2.7,0.7c-0.3,0.4-0.8,0.7-1.2,0.9
	c-1.2,0.7-2.7,0.9-4.1,1c-0.6,0-0.6,0.3-0.4,0.6c0.4,0.6,1,1,1.6,1.3c0.3,0.1,0.6,0.3,0.9,0.4c-2.8,1-8.7,1.4-12.4-1
	c0.2-0.5,0.5-0.9,0.7-1.4c0.6-1.4,1.2-2.8,0.6-4.3c-0.3-0.7-0.7-1.3-1.1-1.9c0.4-0.1,0.6-0.4,0.8-0.7c1.4-2.1,3.5-3.5,6-4.6
	c1.6-0.7,3.3-1.4,4.7-2.4c2.2-1.6,3.8-3.6,5.2-5.7c0.2-0.3,0.4-0.6,0.6-0.9c0,0,0,0,0,0c0,0.9,0,1.9,0,2.8C47.1,6.3,47,7.3,46.8,8.3
	z"/>
<path class="st2" d="M5.4,8.3C5.3,7.4,5.1,6.4,5,5.5c-0.1-1-0.1-1.9-0.2-3C5.2,2.6,5.3,2.8,5.4,3c1.5,2.3,3.1,4.4,5.5,6.1
	c1.2,0.8,2.6,1.5,3.9,2.1c2.1,0.9,4,1.9,5.5,3.4c0.4,0.5,0.8,1,1.2,1.5c0.2,0.3,0.5,0.6,0.9,0.8c-1,0.9-1.4,2.1-1.4,3.3
	c0,1.5,0.8,2.9,1.5,4.2c-3.9,2.3-8.1,2-12.6,1.1c0.4-0.2,0.7-0.3,1-0.4c0.7-0.3,1.4-0.7,1.8-1.3c0.2-0.3,0.3-0.6-0.4-0.7
	C11.5,23,10.7,23,10,22.8c-1.1-0.3-2.2-0.7-3-1.5c0.9,0,1.6-0.1,2.3-0.4c0.4-0.1,0.7-0.3,0.8-0.6c0-0.3-0.4-0.4-0.6-0.5
	c-1.2-0.6-2.1-1.4-3-2.2c-0.6-0.6-1.1-1.4-1.4-2.3c2.1,0.8,4.2,1.6,6.5,1c0-0.1,0-0.1,0-0.2c-0.1-0.1-0.3-0.2-0.5-0.3
	C8.6,14.7,7.2,13,6.3,11C5.9,10.1,5.8,9.2,5.4,8.3z"/>
<path class="st3" d="M22.6,24.4c-0.8-1.3-1.5-2.7-1.5-4.2c0-1.2,0.4-2.4,1.4-3.3c0.4,0,0.8-0.2,1-0.4c1.1-1,0.7-3-0.8-3.7
	c1-0.4,1.9-0.3,2.8,0.2c0.7,0.4,1.1,1,1.5,1.6c0.4,0.5,0.6,1.2,1.3,1.6c0,0,0,0,0,0c0,0.1,0.1,0.1,0.1,0.2c0.3,0.3,0.8,0.5,1.2,0.5
	c0.4,0.6,0.9,1.2,1.1,1.9c0.6,1.5,0.1,2.9-0.6,4.3c-0.2,0.5-0.5,0.9-0.7,1.4c-0.2,0.2-0.4,0.4-0.4,0.7c-0.2,0.2-0.3,0.4-0.4,0.6
	c-0.8,1-1.6,2-2.4,3c-0.2,0.1-0.4,0.1-0.6-0.1c-0.3-0.4-0.7-0.8-1-1.2c-0.7,1.1-1.2,2.3-1.5,3.5C23,32.4,23,33.8,24,35.1
	c0.3,0.4,0.7,0.9,0.7,1.5C23.6,37.2,24,38.1,24,39c0,0-0.1,0-0.1,0c-2.4-2.6-3.5-5.4-2.4-8.7c0.3-0.9,0.8-1.6,1.4-2.4
	c0.1-0.1,0.2-0.3,0.3-0.4c0.9-1.5,0.8-1-0.2-2.3C23,24.9,22.7,24.7,22.6,24.4z"/>
<path class="st1" d="M22.6,24.4c0.2,0.2,0.4,0.4,0.4,0.7c-1.8,1.1-3.8,1.7-6,1.9c-3.8,0.3-7.4-0.4-11.1-1.6c1.1-0.4,2.1-0.7,3-1.4
	c-2.6-0.8-4.2-2.3-5-4.6c0.9,0.3,1.7,0.7,2.8,0.7c-2.8-2-4-4.7-4.9-7.6c1.4,0.6,2.6,1.3,4.2,1.5c-2.7-2.4-3-5.3-3.2-8.4
	c0.9,0.9,1.5,1.9,2.5,2.6c0.4,0.8,0.6,1.8,0.9,2.6c0.9,2.1,2.3,3.7,4.6,4.8c0.2,0.1,0.3,0.2,0.5,0.3c0,0,0,0.1,0,0.2
	c-2.3,0.6-4.3-0.2-6.5-1c0.3,0.9,0.8,1.6,1.4,2.3c0.9,0.9,1.8,1.7,3,2.2c0.3,0.1,0.7,0.2,0.6,0.5c0,0.3-0.4,0.5-0.8,0.6
	c-0.7,0.2-1.4,0.3-2.3,0.4c0.9,0.8,1.9,1.2,3,1.5c0.8,0.2,1.6,0.3,2.3,0.3c0.7,0,0.6,0.3,0.4,0.7c-0.4,0.6-1,1-1.8,1.3
	c-0.3,0.1-0.5,0.2-1,0.4C14.4,26.4,18.7,26.8,22.6,24.4z"/>
<path class="st4" d="M24.7,36.6c-0.1-0.6-0.4-1-0.7-1.5c-1-1.3-1-2.7-0.7-4.1c0.2-1.2,0.8-2.4,1.5-3.5c0.4,0.4,0.7,0.8,1,1.2
	c0.2,0.2,0.3,0.3,0.6,0.1c0.2,0.9,0.7,1.8,1.3,2.6c0.9,1.3,1.4,2.7,1.2,4.3c-0.1,0.5-0.3,1-0.3,1.6c1.1-1.2,1.9-2.4,2.5-3.7
	c-0.1,2.5-1.3,4.6-3,6.6c-0.5,0.6-1.1,1.2-1.9,1.8c0-1.7-0.4-3.2-1.1-4.7C25,36.9,24.9,36.7,24.7,36.6z"/>
<path class="st5" d="M31,33.4c-0.6,1.3-1.4,2.5-2.5,3.7c-0.1-0.6,0.2-1.1,0.3-1.6c0.2-1.6-0.2-2.9-1.2-4.3c-0.6-0.8-1.1-1.6-1.3-2.6
	c0.8-1,1.6-2,2.4-3c0.9,1.5,1.9,2.9,2.2,4.6C31.1,31.4,31.3,32.4,31,33.4z"/>
<path class="st6" d="M28.4,16.2c-0.7-0.4-0.8-1.1-1.3-1.6c-0.5-0.6-0.8-1.2-1.5-1.6c-0.9-0.5-1.9-0.6-2.8-0.2c-0.4,0-0.7,0.1-1,0.3
	c-0.4,0.4-0.5,0.1-0.6-0.2c-0.1-0.5,0-0.9,0.5-1.1c0.3-0.2,0.7-0.3,1.1-0.4c0.5-0.1,0.7-0.2,0.8-0.6c0.1-0.5,0.6-0.8,1.2-0.9
	c1.4-0.3,2.6-0.8,3.2-2c0.2,0.8,0,1.6-0.6,2.3c-0.1,0.1-0.3,0.2,0,0.4c0.6,0.4,0.7,1,0.7,1.6c0,0.9,0.1,1.8,0,2.6
	C28.1,15.2,28.2,15.7,28.4,16.2z"/>
<path class="st6" d="M28.5,16.4c0-0.1-0.1-0.1-0.1-0.2C28.4,16.3,28.5,16.3,28.5,16.4z"/>
</svg>
